<?xml version="1.0" encoding="utf-8"?>
<!-- Generator: Adobe Illustrator 21.1.0, SVG Export Plug-In . SVG Version: 6.00 Build 0)  -->
<svg version="1.1" id="Layer_1" xmlns="http://www.w3.org/2000/svg" xmlns:xlink="http://www.w3.org/1999/xlink" x="0px" y="0px"
	 viewBox="0 0 2789 800" style="enable-background:new 0 0 2789 800;" xml:space="preserve">
<style type="text/css">
	.st0{display:none;}
	.st1{display:inline;fill:#5C67B0;}
	.st2{opacity:0.5;fill:#4B56A5;enable-background:new    ;}
	.st3{opacity:0.75;fill:#4B56A5;enable-background:new    ;}
	.st4{fill:#4B56A5;}
	.st5{opacity:0.2;fill:#4B56A5;enable-background:new    ;}
	.st6{opacity:0.55;}
	.st7{fill:none;stroke:#4B56A5;stroke-width:4;stroke-miterlimit:10;}
	.st8{fill:none;stroke:#6976B9;stroke-width:4;stroke-miterlimit:10;}
</style>
<g id="Layer_1_1_" class="st0">
	<rect x="298" class="st1" width="2491" height="800"/>
</g>
<g id="Layer_2">
	<polygon class="st2" points="842.7,806.6 958.3,697.1 1158.4,824.6 	"/>
	<polygon class="st3" points="1158.4,689.6 958.3,697.1 1158.4,824.6 	"/>
	<polygon class="st4" points="1345.1,605.6 1158.4,689.6 958.3,697.1 	"/>
	<polygon class="st5" points="1158.4,824.6 1345.1,605.6 1158.4,689.6 	"/>
	<polygon class="st3" points="1320.7,824.6 1345.1,605.6 1158.4,824.6 	"/>
	<polygon class="st2" points="1451.8,697.1 1320.7,824.6 1345.1,605.6 	"/>
	<polygon class="st4" points="1405.2,494.6 1345.1,605.6 1451.8,697.1 	"/>
	<polygon class="st3" points="1574.1,460.1 1405.2,494.6 1451.8,697.1 	"/>
	<polygon class="st5" points="1680.8,377.6 1574.1,460.1 1716.4,476.6 	"/>
	<polygon class="st4" points="1880.9,359.6 1680.8,377.6 1716.4,476.6 	"/>
	<polygon class="st4" points="1574.1,460.1 1716.4,476.6 1451.8,697.1 	"/>
	<polygon class="st4" points="1680.8,377.6 1725.3,287.6 1880.9,359.6 	"/>
	<polygon class="st3" points="1934.3,211.1 1725.3,287.6 1880.9,359.6 	"/>
	<polygon class="st4" points="1994.3,98.6 1934.3,211.1 2043.2,238.1 	"/>
	<polygon class="st5" points="2167.7,73.1 1994.3,98.6 2043.2,238.1 	"/>
	<polygon class="st5" points="2250.6,0 2167.7,73.1 2250.6,149.6 	"/>
	<polygon class="st4" points="1880.9,359.6 2043.2,238.1 1934.3,211.1 	"/>
	<polygon class="st4" points="2167.7,73.1 2250.6,149.6 2043.2,238.1 	"/>
	<polygon class="st4" points="1451.8,697.1 1560.8,844.1 1320.7,824.6 	"/>
	<polygon class="st3" points="1716.4,476.6 1451.8,697.1 1560.8,844.1 	"/>
	<polygon class="st5" points="1880.9,359.6 1716.4,476.6 1912,511.1 	"/>
	<polygon class="st5" points="2043.2,238.1 1880.9,359.6 2043.2,520.1 	"/>
	<polygon class="st2" points="2250.6,149.6 2043.2,238.1 2043.2,520.1 	"/>
	<polygon class="st3" points="1880.9,359.6 2043.2,520.1 1912,511.1 	"/>
	<polygon class="st4" points="1716.4,476.6 1912,511.1 1880.9,660.3 	"/>
	<polygon class="st2" points="1560.8,844.1 1716.4,476.6 1880.9,660.3 	"/>
	<polygon class="st5" points="1912,511.1 1880.9,660.3 2043.2,709.1 	"/>
	<polygon class="st4" points="2043.2,520.1 1912,511.1 2043.2,709.1 	"/>
	<polygon class="st3" points="2250.6,149.6 2250.6,494.6 2043.2,520.1 	"/>
	<polygon class="st2" points="2043.2,709.1 2250.6,494.6 2043.2,520.1 	"/>
	<polygon class="st4" points="1880.9,660.3 2043.2,709.1 1560.8,844.1 	"/>
	<polygon class="st4" points="2250.6,494.6 2043.2,709.1 2167.7,760.8 	"/>
	<polygon class="st5" points="1560.8,844.1 2167.7,760.8 2043.2,709.1 	"/>
	<polygon class="st3" points="2250.6,494.6 2167.7,760.8 2298.9,824.6 	"/>
	<polygon class="st4" points="1560.8,844.1 2167.7,760.8 2298.9,824.6 	"/>
	<polygon class="st2" points="2250.6,0 2250.6,149.6 2436.1,133.1 	"/>
	<polygon class="st4" points="2250.6,494.6 2436.1,133.1 2250.6,149.6 	"/>
	<polygon class="st4" points="2298.9,824.6 2479.3,752.2 2250.6,494.6 	"/>
	<polygon class="st5" points="2574.5,400 2250.6,494.6 2702.2,533.6 	"/>
	<polygon class="st3" points="2436.1,133.1 2250.6,494.6 2574.5,400 	"/>
	<polygon class="st4" points="2250.6,0 2520.6,0 2436.1,133.1 	"/>
	<polygon class="st3" points="2250.6,494.6 2702.2,533.6 2479.3,752.2 	"/>
	<polygon class="st2" points="2298.9,824.6 2479.3,752.2 2495.4,844.1 	"/>
	<polygon class="st3" points="2702.2,533.6 2574.5,400 2789,359.6 	"/>
	<polygon class="st4" points="2436.1,133.1 2574.5,400 2789,359.6 	"/>
	<polygon class="st3" points="2520.6,0 2436.1,133.1 2789,0 	"/>
	<polygon class="st5" points="2789,359.6 2789,0 2436.1,133.1 	"/>
	<polygon class="st4" points="2702.2,533.6 2789,359.6 2789,800 	"/>
	<polygon class="st4" points="2495.4,844.1 2702.2,533.6 2479.3,752.2 	"/>
	<polygon class="st2" points="2789,800 2495.4,844.1 2702.2,533.6 	"/>
</g>
<g id="Layer_3_copy">
	<g class="st6">
		<path class="st7" d="M1616.1,218.6L1806-30.2L1616.1,218.6z"/>
		<line class="st7" x1="1371.3" y1="291.7" x2="1592.1" y2="236.8"/>
		<line class="st7" x1="1150.5" y1="486.1" x2="1346.6" y2="308.5"/>
		<line class="st7" x1="899" y1="453" x2="1123.1" y2="491.2"/>
		<line class="st7" x1="665.7" y1="601.3" x2="872.8" y2="461.4"/>
		<line class="st7" x1="409.2" y1="632.4" x2="639.5" y2="615.7"/>
		<line class="st7" x1="172.6" y1="860.2" x2="383.7" y2="647.5"/>
		
			<ellipse transform="matrix(0.9954 -9.533329e-02 9.533329e-02 0.9954 -58.8801 40.4969)" class="st7" cx="394.4" cy="636.5" rx="15.4" ry="15.4"/>
		
			<ellipse transform="matrix(0.9954 -9.533329e-02 9.533329e-02 0.9954 -38.9301 86.2946)" class="st7" cx="883.7" cy="450.6" rx="15.4" ry="15.4"/>
		
			<ellipse transform="matrix(0.9954 -9.533329e-02 9.533329e-02 0.9954 -22.0803 130.6069)" class="st7" cx="1355.8" cy="296.4" rx="15.4" ry="15.4"/>
		
			<ellipse transform="matrix(0.9954 -9.533329e-02 9.533329e-02 0.9954 -55.3232 65.1591)" class="st7" cx="654.3" cy="611.6" rx="15.4" ry="15.4"/>
		
			<ellipse transform="matrix(0.9954 -9.533329e-02 9.533329e-02 0.9954 -42.0146 110.7394)" class="st7" cx="1137.9" cy="495.1" rx="15.4" ry="15.4"/>
		
			<ellipse transform="matrix(0.9954 -9.533329e-02 9.533329e-02 0.9954 -14.6027 154.1259)" class="st7" cx="1605.7" cy="229.9" rx="15.4" ry="15.4"/>
	</g>
</g>
<g id="Layer_3_copy_2">
	<g>
		<path class="st8" d="M2645,370.5l228-238.3L2645,370.5z"/>
		<line class="st8" x1="2404.5" y1="364.1" x2="2618.9" y2="376"/>
		<line class="st8" x1="2151" y1="547.9" x2="2373.8" y2="370.1"/>
		<line class="st8" x1="1910.7" y1="509.8" x2="2125.7" y2="553.5"/>
		<line class="st8" x1="1655.8" y1="631.6" x2="1879.9" y2="516.6"/>
		<line class="st8" x1="1407.5" y1="647.1" x2="1626.1" y2="637.1"/>
		<line class="st8" x1="1145.6" y1="817.8" x2="1380.4" y2="656.9"/>
		
			<ellipse transform="matrix(2.535427e-03 -1 1 2.535427e-03 741.545 2037.4752)" class="st8" cx="1392.1" cy="647" rx="15.4" ry="15.4"/>
		
			<ellipse transform="matrix(2.535427e-03 -1 1 2.535427e-03 1380.7065 2403.8042)" class="st8" cx="1895.3" cy="509.8" rx="15.4" ry="15.4"/>
		
			<ellipse transform="matrix(2.535427e-03 -1 1 2.535427e-03 2020.2264 2751.2485)" class="st8" cx="2389.2" cy="362.9" rx="15.4" ry="15.4"/>
		
			<ellipse transform="matrix(2.535427e-03 -1 1 2.535427e-03 1000.1594 2276.9688)" class="st8" cx="1641.5" cy="637.1" rx="15.4" ry="15.4"/>
		
			<ellipse transform="matrix(2.535427e-03 -1 1 2.535427e-03 1576.0054 2697.5054)" class="st8" cx="2140.2" cy="558.7" rx="15.4" ry="15.4"/>
		
			<ellipse transform="matrix(2.535427e-03 -1 1 2.535427e-03 2246.1602 3013.4341)" class="st8" cx="2633.6" cy="380.8" rx="15.4" ry="15.4"/>
	</g>
</g>
</svg>
